/* XPM */
static char *_655d3bd3b2442fed18ce010ed62af9a8Q6b1KiIgrzIZPGS[] = {
/* columns rows colors chars-per-pixel */
"64 64 77 1 ",
"  c None",
". c #008FB5",
"X c #0291B6",
"o c #0994B7",
"O c #0C95B8",
"+ c #1196B9",
"@ c #1699BB",
"# c #1D9CBD",
"$ c #239FBE",
"% c #27A0BF",
"& c #29A0BF",
"* c #2DA2C0",
"= c #33A4C2",
"- c #38A7C3",
"; c #3DA9C5",
": c #37BBD6",
"> c #3ABCD7",
", c #44ACC6",
"< c #49ADC7",
"1 c #4BAEC8",
"2 c #52B1CA",
"3 c #5DB5CD",
"4 c #41BDD7",
"5 c #43BED8",
"6 c #48BFD8",
"7 c #61B7CD",
"8 c #65B9CF",
"9 c #6DBCD1",
"0 c #73BED2",
"q c #4BC0D9",
"w c #53C3DA",
"e c #5BC5DB",
"r c #61C7DC",
"t c #65C8DD",
"y c #6CCADE",
"u c #76C0D3",
"i c #7CC2D4",
"p c #74CCDF",
"a c #7ACEE0",
"s c #7FD0E1",
"d c #84C5D6",
"f c #89C7D7",
"g c #8ECAD9",
"h c #95CCDA",
"j c #9CCFDC",
"k c #9FD0DD",
"l c #A1D1DD",
"z c #82D1E1",
"x c #8CD3E3",
"c c #94D6E4",
"v c #98D7E4",
"b c #9BD8E5",
"n c #ADD6E0",
"m c #A3DAE6",
"M c #ACDDE7",
"N c #AFDEE8",
"B c #B1D7E1",
"V c #B5D9E3",
"C c #BCDCE4",
"Z c #B2DFE8",
"A c #B6E0E9",
"S c #BCE2EA",
"D c #C4DFE6",
"F c #C5E0E6",
"G c #C8E1E7",
"H c #C4E4EB",
"J c #CCE5EB",
"K c #D4E6EA",
"L c #D9E7EB",
"P c #D3E9ED",
"I c #DCEAED",
"U c #E3ECEF",
"Y c #E9EEEF",
"T c #E6EEF0",
"R c #EAEFF0",
"E c #EEF0F1",
"W c #F2F2F2",
/* pixels */
"   WWEWWWWWWWWWWWWWWWWWWWWWWWWWWWWWWWWWWWWWWWWWWWWWWWWWWWWWWW   ",
"  WWWWWWWWWWWWWWWWWWWWWWWWWWWWWWWWWWWWWWWWWWWWWWWWWWWWWWWWWWWW  ",
" WWWWWWWWWWWWWWWWWWWWWWWWWWWWWWWWWWWWWWWWWWWWWWWWWWWWWWWWWWWWWW ",
"WWWWWWWWWWWWWWWWWWWWWWWWWWWWWWWWWWWWWWWWWEWWWWWWWWWWWWWWWWWWWWWW",
"WWWWWWWWWWWWWWWWWWWWWWWWWWWWWWWWWWWWWWWWWWWWWWWWWWWWWWWWWWWWWWWW",
"WWWWWWWWWWWWWWWEWWWWWWWWWWWWWWWWWWWWWWWWWWWWWWWWWWWWWWWWWWWWWWWW",
"WWWWWWWWWWWWWWWWWWWWWWWWWWWWWWWWWWWWWWWWWWWWWWWWWWWWWWWWWWWWWWWW",
"WWWWWWWWWWWWWWWWWWWWEWWWWWWWWWWWWWWWWWWWWWWWWWWWWWWWWWWWWWWWWWWW",
"WWWWWWWWWWWWEWWWWWWWWWWWWWEWWWWWWWWWWWWWWWWEWWWWWWWWWWEWWWWWWWWW",
"WWWEWWWWWWWWWWWWWWWWWWWWWWWWWWWWWWWWWWWWWWWWEWWWWWWWWWWWWWWWWWWW",
"WWWWWWWWWWWWWWWWWWWWWWWWWWWWWWWWWEWWWWWWWWWWWWWWWWWWWWWWWWWWWWWW",
"WWWWWWWWWWWWWWWWEWWWWWWWWWWWWWWWWEWWWWWWWWWWWWWWWWWWWWWWWWWWWWWW",
"WWWWWWWWEWWWWWWWWWWWWWWWWWWWWWWWWWWWWWWWWWWWWWWWWWWWWWWWWWWWWWWW",
"WWWWWWWWWWWWWWWWWWWWWWWWWWWWWWWWWWWWWWWWWWWWWWWWWWWWWWWWWWWWWWWW",
"WWWWWWWWWWWWWWWWWWWWWWWWWWWWWWWWWWWEWWWWWWWWWWWWWWWWWWWWWWWWWWWW",
"WWWWWWWWWWWWWWWWWWWWWWWWWWWWWWWWWWWWWWWWWWWWWWWWWWWWWWWWWWWWWWWW",
"WWWEWWWWWWWWWWWWWWWWWWYCIWWWWWWWWWWWWWWIHEWWWWWWEWWWWWWWWWWWWWWW",
"WWWWWWWWWWWWWWWWWWWWWV1O=lYWWWWWWWWWWEAtqaHEWWWWWWWWWWWWWWWEWWWW",
"WWWWWWWWWWWWWWWWEWWK9@...o2DWWWWWWWWGa>>::qxPWWEWWWWWWWWWWWWWWWW",
"WWWWWWWWWWWWWWEWWUg$.X..XX.@9KWWEWWHw:>>>:>>wmUWWWWWWWWWWWWWWWWW",
"WEWWWWWWWWWWWWWEl;XX.XXXXXXXX&gUWWWEHy>>>>>>>>tARWWWWWWWWWEWWWWW",
"WWWWWWWWWWWWWWD2O.XXXXX.XXXX...,nEWWWEAe>:>>>>>qaJWWWWWWWWWWWWWW",
"WWWWWWWWWEWWK0@.XXXXX.$3&XXXXXX.o3FWWWWTvq>>>>>>:qcIWWWWWWWWWWWW",
"WWWWWWWWWWUh$.XXXX..+7GELi@.XXXXXX#uLWWWWJz5:>>>>::emRWWWWWWWWWW",
"WWWWWWWWWEtXXXXXX.o,BEWWWWG3+.XXXXX.*hYWWWEHy>>>>>>>>xWWWWWWWWWW",
"WWWWWWWWWE1.XXXXX&gUWWWWWWWEl,X.XXXX.X,BEWWWTMe>>>>>:pEWWWWWWWWW",
"WWWWWWWWWE1.XX.@uLWWWWPvHEWWWUh&XXXXXX.+7GWWWWIvq>>>:pEWWWWWWWWW",
"WWWWWWWWWY1.X..gWWWWUbq>5xPWWWWK0@XXXXXXX#iIWWWWb>:>:aEWWWWWWWWW",
"WWWWWWWWWW1.X.XlWWENe>>>>:wbUWWWWdX.XXXXXXX=kEWWN>>>:pEWWWWWEWWW",
"WWWWWWWWWY1.XX.lWWS5>>>>>>>>rAEWWkXXXXXXXXXX+AWWN>>>:aEWWWWWWWWW",
"WWWWWWWWWR1.XXXlWWC>>>>>>>>>>5HWWloXXXXXXXXXXkWWN>>>:pEWWWWWWWWW",
"WWWWWWWWWW1.XXXlWWA>>>>>>>>>>>ZWWlXXXXXoXXXXXkWWN>>>:pEWWWWWWWWW",
"WWWWWWWWWW1.XX.lWWZ>>>>>>>>>>>CWWl..XXXXXXXXXlWWC>>>:aEWWWWWWWWW",
"WWWWWWWWWW1.X.XlWWN>>>>>>5>>>>SWWBO.XXoXXXXXXlWWA>>>:yEEWWWWWWWW",
"WWWWWWWWWR1.XXXlWWS>>>>>>>>>>>ZWWRj=X.XXXX..OnWWZ>>>:aWWWWWWWWEW",
"WWWWWWWWWR1.X.XlWWENe>>>>>>>>>mWWWWIi#.XX..=jRWWZ>>>:aEWWWWWWWWW",
"WWWWWWWWWR1.XXXgWWWWIvq:>>>>>>6cIWWWWG7+.#dLWWWWb>>>>aEWWWWWWWWW",
"WWWWWWWWWW1.XXX@dIWWWWPsq:>>>>>>eMTWWWWniDWWWWIcq>>>:aEWWWWWWWWW",
"WWWWWWWWWY1.XXXX.*jTWWWESy>>>>>>>>ySWWWWWWWWTNe>>>>>:yEWWWWWWWWW",
"WWWWWWWWWW9.XXXX..o1VWWEWTMe>>>>>>>5zPWWWWWHy>>>>>>>:xWWWWWWWWWW",
"WWWWWWWWWWUg$..XXX..+8GWWWWIcq:>>>>>>wbIWPz6>>>>>>:emTWEWWWWWWWW",
"WWWWWWWWWRWWK0@.XX.o..#dIWWWWJa5>>>>>>>rzw::>>>>:qxIWWWWWEWWWWWW",
"WWWWWWWWWWWWWWC2O..XXX.X=lTWWWESt>>>>>>>:>>>>>>5sHEWWWWWWWWWWWWW",
"WWWWWWWWWWWWWWWYn=X.XXX.XX2VYWWWUmw>>>>>>>>>>>rZEWWWWWWWWWWWWWWW",
"WWWWWWWWWWWWWWWWWUd$.XXoXXX*AWWEWWLx6:>>>>>:wbTWWWWWWWWWWWWWWWWW",
"WWWWWWEWWWWWWWWWWWWG8+..XO2VWWWWWWWWHa>>>>6xLWWWWWWWWWWWWWWWWWWW",
"WWWWWWWWWWWWWWWWWWWWWV1O=bTWWWWWWWWWWTZe5aHEWWWWWWWWWWWWWWWWWWWW",
"WWWWWWWWWWWWWWWWWWWWWWTVIWWWWWWWWWWWWWWUHTWEWWWWWWWWWWWWWWWWWEWW",
"WWWWWEWWWWWWWWWWWWWWWWWWWWWWWWWWWWWWWWEWWWEWWWWWWWWWWWWWWWWWWWWW",
"WWWWWWWWWWWWWWWWWEWWWWWWWWWWWWWWWWWWWWWWWWWWWWWWWWWWWWWWWWWWWWWW",
"WWWWWWWWWWWWWWWWWWWWWWWWWWWWWWWWWWWWWWWWWWWWWWWWWWWWWWWWWWWWWWWW",
"WWWWWWWWWWWWWWWWWWWWWWWWWWWWWWWWWWWWWWWWWWWWWWWWWWWWWWWWWWWWWWWW",
"WEWWWWWWWWWWWWWWWWWWWWWWWWWWWWWWWWWWWWWWWWWWWWWWEWWWWWWWWWWWWWWW",
"WWWWWWWWWWWWWWWEWWWWWWWWWWWWWWWWWWWWWWWWWWWWWWWWWWWWWWWWWWWWWWWW",
"WWWWWWWWWWWWWWWWWWWWWWWWWWWWWEWWWWWWWWWWWWWWWWWWWWWWWWWWWWWWWWWW",
"WWWWWWWWWWWWWWWWWWWWWWWWWWWWWWWWWWWWWWWWWWWWWWWWWWWWWWWWWWWWWWWW",
"WWWWWWWWWWWWEWWWWWWWWWWWWWWWWWWWWWWWWWWWEWWWWWWWWWWWWWWWWWWWWWWW",
"WWWEWWWWWWWWWWWWWWWWWWWWWWWWWWWWWWWWWWWWWWWWWWWWWWWWWWWWWWWWWWWW",
"WWWWWWWWWWWWWWWWWWWWWWWWWWWWWWWWWWWWWWWWWWWWWWWWWWWWWWWWWEWWWWWW",
"WWWWWWWWWWWWWWWWWWWWWWWWWWWWWWWWWWWWWWWWWWWWWWWWWWWWWWWWWWWWWWWW",
"WWWWWWWWEWWWWWWWWWWWWWWWWWWWWWWWWWWWWWWWWWWWWWWWWWWWWWWWWWWWWWWW",
" WWWWWWWWWWWWWWWWWWWWWWWEWWWWWWWWWWWWWWWWWWWWWWWWWWWWWWWWWWWWWW ",
"  WWWWWWWWWWWWWWWWWWWWWWWWWWWEWEWWWWWWWWWWWWWWWWWWWWWWWWWWWWWW  ",
"   WWWWWWWWWWWWWWWWWWWWWWWWWWWWEWWWWWWWWWWWWWWWWWWWWWWWWWWWWW   "
};
