/* XPM */
static char *result[] = {
/* columns rows colors chars-per-pixel */
"16 16 80 1 ",
"  c #008DB3",
". c #1397BA",
"X c #1398BA",
"o c #1A9ABB",
"O c #1A9ABC",
"+ c #229EBE",
"@ c #239EBE",
"# c #2CA1C0",
"$ c #2EA2C1",
"% c #35A5C2",
"& c #38A6C3",
"* c #3CA8C4",
"= c #34B9D5",
"- c #49ADC7",
"; c #48BFD8",
": c #61B6CD",
"> c #65B9CE",
", c #66B9CF",
"< c #71BED1",
"1 c #48C0D9",
"2 c #4DC1D9",
"3 c #4FC2DA",
"4 c #54C3DA",
"5 c #5CC5DB",
"6 c #5CC6DC",
"7 c #63C8DD",
"8 c #64C8DD",
"9 c #67C9DD",
"0 c #77C0D3",
"q c #71CCDF",
"w c #80C4D5",
"e c #81C4D5",
"r c #82C5D6",
"t c #83C5D6",
"y c #84C5D6",
"u c #85C5D6",
"i c #90CAD9",
"p c #93CCDA",
"a c #9BCEDC",
"s c #9ED1DE",
"d c #84D1E2",
"f c #86D2E2",
"g c #87D2E2",
"h c #90D5E3",
"j c #93D6E4",
"k c #9AD7E4",
"l c #9BD8E5",
"z c #9CD8E5",
"x c #9FD9E5",
"c c #A6D4E0",
"v c #A7D4E0",
"b c #ACD7E1",
"n c #A7DBE6",
"m c #A7DCE7",
"M c #AFD9E3",
"N c #ADDCE6",
"B c #B3DCE5",
"V c #B0DCE6",
"C c #B5DEE7",
"Z c #B1DEE8",
"A c #B4DFE8",
"S c #C9E1E7",
"D c #CAE2E8",
"F c #D8E7EB",
"G c #D3E8ED",
"H c #D3E9ED",
"J c #DFEAED",
"K c #DEECEF",
"L c #E0EAED",
"P c #E4EDEF",
"I c #EDEFF0",
"U c #EFF1F2",
"Y c #F1F1F1",
"T c #F1F1F2",
"R c #F1F2F2",
"E c gray95",
"W c #F3F2F2",
"Q c #F4F2F2",
"! c #F5F2F2",
"~ c #F5F3F2",
/* pixels */
"EEEEEEEEEEEEEEEE",
"EEEEEEEEEEEEEEEE",
"EEEETEETREEREEEE",
"EETEQYEWEYYWEREE",
"EYWWD,0FUxgHWEYE",
"EELe@%#$pN94zPEE",
"E~i.rCB<O-ck;mQE",
"E~y&A13Z: .v8x!E",
"E~y&A1=dao.v8x!E",
"E~iXtVq2hMbk;mQE",
"EEJw+*sn5674lPEE",
"EYWWS>uIKjfGWWYE",
"EETEQYYEWEYWEREE",
"EEEETEETREEREEEE",
"EEEEEEEEEEEEEEEE",
"EEEEEEEEEEEEEEEE"
};
