/* XPM */
static char *_8d1491a053b483fb8784f7095cdfa6aBUnrB7suVg52cANR[] = {
/* columns rows colors chars-per-pixel */
"32 32 192 2 ",
"   c None",
".  c #008EB4",
"X  c #008FB4",
"o  c #008FB5",
"O  c #0090B5",
"+  c #0190B5",
"@  c #0191B6",
"#  c #0291B6",
"$  c #0391B6",
"%  c #0591B6",
"&  c #0592B6",
"*  c #0692B6",
"=  c #0692B7",
"-  c #0792B7",
";  c #0993B7",
":  c #0B94B8",
">  c #0C95B8",
",  c #0D95B8",
"<  c #0F96B9",
"1  c #1096B9",
"2  c #1197B9",
"3  c #1498BA",
"4  c #1699BA",
"5  c #1799BB",
"6  c #189ABB",
"7  c #27A0BF",
"8  c #2AA1C0",
"9  c #2CA2C0",
"0  c #2DA2C0",
"q  c #2EA2C1",
"w  c #2FA3C1",
"e  c #31A4C1",
"r  c #32A4C1",
"t  c #33A4C2",
"y  c #34A5C2",
"u  c #3EA9C5",
"i  c #35BAD6",
"p  c #36BAD6",
"a  c #37BAD6",
"s  c #38BBD6",
"d  c #39BBD6",
"f  c #3ABBD6",
"g  c #3BBCD7",
"h  c #3CBCD7",
"j  c #3DBCD7",
"k  c #3EBCD7",
"l  c #3FBDD7",
"z  c #41AAC5",
"x  c #42AAC6",
"c  c #42ABC6",
"v  c #44ABC6",
"b  c #46ACC7",
"n  c #48ADC7",
"m  c #51B1C9",
"M  c #57B3CB",
"N  c #58B4CB",
"B  c #59B4CB",
"V  c #5AB4CC",
"C  c #5FB6CD",
"Z  c #40BDD7",
"A  c #42BED8",
"S  c #44BED8",
"D  c #45BFD8",
"F  c #47BFD8",
"G  c #60B7CD",
"H  c #61B7CD",
"J  c #66B9CF",
"K  c #6FBDD1",
"L  c #71BED1",
"P  c #74BFD2",
"I  c #49C0D9",
"U  c #4AC0D9",
"Y  c #4BC0D9",
"T  c #4CC1D9",
"R  c #56C4DB",
"E  c #58C4DB",
"W  c #59C5DB",
"Q  c #5BC5DB",
"!  c #5CC5DB",
"~  c #5DC6DC",
"^  c #5FC6DC",
"/  c #60C6DC",
"(  c #61C7DC",
")  c #63C7DC",
"_  c #67C9DD",
"`  c #69C9DD",
"'  c #6CCADE",
"]  c #6ECBDE",
"[  c #72CCDF",
"{  c #76CDDF",
"}  c #79CEE0",
"|  c #7ACEE0",
" . c #7BCFE0",
".. c #80C4D5",
"X. c #81C4D5",
"o. c #83C5D6",
"O. c #86C6D7",
"+. c #8DC9D8",
"@. c #92CBDA",
"#. c #93CBDA",
"$. c #94CCDA",
"%. c #96CCDB",
"&. c #99CEDB",
"*. c #A0D1DD",
"=. c #A1D1DD",
"-. c #81D0E1",
";. c #83D1E1",
":. c #84D1E1",
">. c #89D3E2",
",. c #8CD4E3",
"<. c #90D5E3",
"1. c #9BD8E5",
"2. c #9DD8E5",
"3. c #9DD9E5",
"4. c #AAD5E0",
"5. c #ACD5E0",
"6. c #A0DAE6",
"7. c #A3DAE6",
"8. c #A7DCE7",
"9. c #A8DCE7",
"0. c #AADCE7",
"q. c #ACDDE7",
"w. c #B0D7E1",
"e. c #B1D7E1",
"r. c #B1D8E1",
"t. c #B5D9E2",
"y. c #BCDCE4",
"u. c #BEDCE4",
"i. c #BFDDE5",
"p. c #B0DEE8",
"a. c #B2DFE8",
"s. c #B3DFE8",
"d. c #B6E0E9",
"f. c #BAE1E9",
"g. c #BBE2EA",
"h. c #C3DFE6",
"j. c #C4DFE6",
"k. c #C5DFE6",
"l. c #C9E1E7",
"z. c #C0E3EA",
"x. c #C1E3EA",
"c. c #C2E3EA",
"v. c #C5E5EB",
"b. c #C7E5EB",
"n. c #CAE1E8",
"m. c #C9E6EC",
"M. c #CAE6EC",
"N. c #CDE7EC",
"B. c #CEE7EC",
"V. c #CFE8ED",
"C. c #D2E5EA",
"Z. c #D5E6EA",
"A. c #D6E6EB",
"S. c #D7E6EB",
"D. c #D3E8ED",
"F. c #D2E9ED",
"G. c #D3E9ED",
"H. c #D8EAEE",
"J. c #DFEAED",
"K. c #DCEBEE",
"L. c #DDEBEE",
"P. c #DDECEF",
"I. c #E0EBED",
"U. c #E3ECEE",
"Y. c #E4ECEE",
"T. c #E5ECEE",
"R. c #E5EDEE",
"E. c #E6EDEE",
"W. c #E7EDEF",
"Q. c #E9EEEF",
"!. c #E4EEF0",
"~. c #E5EEF0",
"^. c #E7EEF0",
"/. c #E9EEF0",
"(. c #E8EFF0",
"). c #E9EFF1",
"_. c #EAEFF0",
"`. c #EBF0F1",
"'. c #EDF0F1",
"]. c #EEF0F0",
"[. c #EEF0F1",
"{. c #EFF0F1",
"}. c #EFF1F1",
"|. c #F0F1F1",
" X c #F1F1F1",
".X c #F0F1F2",
"XX c #F1F2F2",
"oX c gray95",
"OX c #F3F2F2",
"+X c #F4F2F2",
"@X c #F4F3F2",
"#X c #F5F3F2",
/* pixels */
"  oXoXoXoXoXoXoXoXoXoXoXoXoXoXoXoXoXoXoXoXoXoXoXoXoXoXoXoXoXoX  ",
"oXoXoXoXoXoXoXoXoXoXoXoXoXoXoXoXoXoXoXoXoXoXoXoXoXoXoXoXoXoXoXoX",
"oXoXoXoXoXoXoXoXoXoXoXoXoXoXoXoXoXoXoXoXoXoXoXoXoXoXoXoXoXoXoXoX",
"oXoXoXoXoXoXoXoXoXoXoXoXoXoXoXoXoXoXoXoXoXoXoXoXoXoXoXoXoXoXoXoX",
"oXoXoXoXoXoXoXoXoXoXoXoXoXoXoXoXoXoXoXoXoXoXoXoXoXoXoXoXoXoXoXoX",
"oXoXoXoXoXoXoXoXoXoXoXoXoXoXoXoXoXoXoXoXoXoXoXoXoXoXoXoXoXoXoXoX",
"oXoXoXoXoXoXoXoXoXoXoXoXoXoXoXoXoXoXoXoXoXoXoXoXoXoXoXoXoXoXoXoX",
"oXoXoXoXoXoXoXoXoXoXoX@X+XoX XoXoX XoXoX+XoXoXoXoXoXoXoXoXoXoXoX",
"oXoXoXoXoXoXoXoXoX+XA.o.=.Q.+XoX[.oX[.s.3.L.+XoXoXoXoXoXoXoXoXoX",
"oXoXoXoXoXoXoX+XW.$.0 + ; m y.oX@XU.;.h g ! q.W.+XoXoXoXoXoXoXoX",
"oXoXoXoXoX@X[.r.b = . + O X 5 K C.oXf.` g a h ] x.[.oXoXoXoXoXoX",
"oXoXoXoXoXn.H 1 + + 8 O.J 2 O + 7 +.W.(.9.R g f D ;.G.oXoXoXoXoX",
"oXoXoXoXW.c . . 5 L Z.+XoXt.n - . - u 4.].K.,.I g p ` `.oXoXoXoX",
"oXoXoXoXU.e . e y.oXV.;.1.W.Q.&.0 + + : M l.oXm.Q p ~ W.oXoXoXoX",
"oXoXoXoXU.e . B +X9.T f g ) d.oXr.: + + + 5 #.oX .a ) W.oXoXoXoX",
"oXoXoXoXW.e . B oX{ a f g p I F.i., + + + X M oX{ i ) W.oXoXoXoX",
"oXoXoXoXW.e . B [. .a g g f F N.k.5 . + + . M oX{ a ( (.oXoXoXoX",
"oXoXoXoXY.y . V +X9.I f f f A x.[.*.y + . 6 #.oX .a ( (.oXoXoXoX",
"oXoXoXoXI.e X 0 i.oXV. .A a f ! q.(.J.o.H c.oXM.! a ^ (.oXoXoXoX",
"oXoXoXoXY.b X + 6 L Z.[.f._ g a l } v.oXoXJ.<.I f a ` (.oXoXoXoX",
"oXoXoXoXoXl.H , . + 7 #.Q.Q.7.R a a F >.6.Q f a F :.D.oXoXoXoXoX",
"oXoXoXoXoX+X].r.b - X - b =.].K.,.I a a f a h ] x._.oXoXoXoXoXoX",
"oXoXoXoXoX XoX+XW.$.7 + - C I.oXoXb.} A f Q 9.(.+XoX XoXoXoXoXoX",
"oXoXoXoXoXoXoXoXoX+XZ.o.*.Q.oXoXoXoX(.a.1.K.oXoXoXoXoXoXoXoXoXoX",
"oXoXoXoXoXoXoXoXoXoXoX+X+XoXoXoXoXoXoX+X+XoXoXoXoXoXoXoXoXoXoXoX",
"oXoXoXoXoXoXoXoXoXoXoXoXoXoXoXoXoXoXoXoXoXoXoXoXoXoXoXoXoXoXoXoX",
"oXoXoXoXoXoXoXoXoXoXoXoXoXoXoXoXoXoXoXoXoXoXoXoXoXoXoXoXoXoXoXoX",
"oXoXoXoXoXoXoXoXoXoXoXoXoXoXoXoXoXoXoXoXoXoXoXoXoXoXoXoXoXoXoXoX",
"oXoXoXoXoXoXoXoXoXoXoXoXoXoXoXoXoXoXoXoXoXoXoXoXoXoXoXoXoXoXoXoX",
"oXoXoXoXoXoXoXoXoXoXoXoXoXoXoXoXoXoXoXoXoXoXoXoXoXoXoXoXoXoXoXoX",
"oXoXoXoXoXoXoXoXoXoXoXoXoXoXoXoXoXoXoXoXoXoXoXoXoXoXoXoXoXoXoXoX",
"  oXoXoXoXoXoXoXoXoXoXoXoXoXoXoXoXoXoXoXoXoXoXoXoXoXoXoXoXoXoX  "
};
