/* XPM */
static char *ae37898211be4fd8cd5d93111aa776ccY4kdT3wvljeEeVU8[] = {
/* columns rows colors chars-per-pixel */
"128 128 80 1 ",
"  c None",
". c #008FB5",
"X c #0291B6",
"o c #0993B7",
"O c #0D95B8",
"+ c #1197B9",
"@ c #1598BA",
"# c #1C9BBC",
"$ c #239EBE",
"% c #27A0BF",
"& c #28A0BF",
"* c #2CA2C0",
"= c #34A5C2",
"- c #3AA7C4",
"; c #3EA9C5",
": c #37BBD6",
"> c #3BBCD7",
", c #44ABC6",
"< c #49AEC7",
"1 c #4DAFC9",
"2 c #4FB0C9",
"3 c #54B2CA",
"4 c #5CB5CC",
"5 c #40BDD7",
"6 c #45BED8",
"7 c #48BFD8",
"8 c #61B7CD",
"9 c #65B9CE",
"0 c #69BACF",
"q c #6DBCD0",
"w c #73BED2",
"e c #4CC1D9",
"r c #53C3DA",
"t c #5BC5DB",
"y c #61C7DC",
"u c #65C8DD",
"i c #6BCADE",
"p c #77C0D3",
"a c #7BC2D4",
"s c #75CDDF",
"d c #78CEDF",
"f c #7ACEE0",
"g c #7FD0E1",
"h c #83C5D6",
"j c #89C7D7",
"k c #8DC9D9",
"l c #94CBDA",
"z c #9BCFDC",
"x c #9FD0DD",
"c c #A3D2DE",
"v c #A8D4DF",
"b c #83D1E1",
"n c #8BD3E2",
"m c #93D6E4",
"M c #99D7E4",
"N c #9DD9E5",
"B c #ACD5E0",
"V c #A2DAE6",
"C c #ABDDE7",
"Z c #AFDEE8",
"A c #B0D7E1",
"S c #B4D9E2",
"D c #BCDCE4",
"F c #B2DFE8",
"G c #B7E0E9",
"H c #BCE2EA",
"J c #C2DFE6",
"K c #C6E0E7",
"L c #C8E1E7",
"P c #C5E4EB",
"I c #CCE5EA",
"U c #D3E5EA",
"Y c #D4E9ED",
"T c #DCEAED",
"R c #E3ECEE",
"E c #E8EEEF",
"W c #E6EEF0",
"Q c #EAEFF0",
"! c #EEF0F1",
"~ c #F2F2F2",
/* pixels */
"        ~~~~~~~~~~~~~~~~~~~~~~~~~~~~~~~~~~~~~~~~~~~~~~~~~~~~~~~~~~~~~~~~~~~~~~~~~~~~~~~~~~~~~~~~~~~~~~~~~~~~~~~~!~~~~~~~        ",
"      ~~~~~!~~~~~~~~~~~~~~~~~~~~~~~~~~~~~~~~~~~~~~~~~~~~~~~~~~~~~~~~~~~~~~~~~~~~~~~~~~!~~~~~~~~~~~~~~~~~~~~~~~~~~~~~~~~~~~      ",
"    ~~~~~~~~~~~~~~~~~~~~~~~~~~~~~~~~~~~~~~~~~~~~~~!~~~~~~~~~~~~~~~~~~~~~~~~~~~~~~~~~~~~~~~~~~~~~~~~~~~~~~~~~~~~~~~~~~~~~~~~~    ",
"   ~~~~~~~~~~~~~~~~~~~~~~~~~~~~~~~~~~~~~~~~~~~~~~~~~~~~~~~~~~~~~~~~~~~~~~~~~~~~~~~~~~~~~~~~~~~~~~~~~~~~~~~~~~~~~~~~~~~~~~~~~~   ",
"  ~~~~~~~~~~~~~~~~~~~~~~~~~~~~~~~~~~~~~~~~~~~~~~~~~~~~~~~~~~~~~~~~~~~~~~~~~~~~~~~~~~~~~~~~~~~~~~~~~~~~~~~~~~~~~~~~~~~~~~~~~~~~  ",
"  ~~~~~~~~~~~~~~~~~~~~~~~~~~~~~~~~~~~~~~~~~~~~~~~~~~~~~~~~~~~~~~~~~~~~~~~~~~~~~~~~~~~~~~~~~~~~~~~~~~~~~~~~~~~~~~~~~~~~~~~~~~~~  ",
" ~~~~~~~~~~~~~~~~~~~~~~~~~~~~~~~~~~~~~~~~~~~~~~~~~~~~~~~~~~~~~~~~~~~~~~~~~~~~~~~~~~~~~~~~~~~~~~~~~~~~~~~~~~~~~~~~~~~~~~~~~~~~~~ ",
" ~~~~~~~~~~~~~~~~~~~~~~~~~~~~~~~~~~~~~~~~~~~~~~~~~~~~~~~~~~~~~~~~~~~~~~~~~~~~~~~~~~~~~~~~~~~~~~~~~~~~~~~~~~~~~~~~~~~~~~~~~~~~~~ ",
"~~~~~~~~~~~~~~~~~~~~~~~~~~~~!~~~~~~~~~~~~~~~~~~~~~~~~~~~~~~~~~~~~~~~~~~~~~~~~~~~~~~~~~~~~~~~~~~~~~~~~~~~~~~~~~~~~~~~~~~~~~~~~~~~",
"~~~~~~~~~~~~~~~~~~~~~~~~~~~~~~~~~~~~~~~~~~~~~~~~~~~~~~~~~~~~~~~~~~~~~~~~~~~~~~~~~~~~~~~~~~~~~~~~~~~~~~~~~~~~~~~~~~~~~~~~~~~~~~~~",
"~~~~~~~~~~~~~~~~~~~~~~~~~~~~~~~~!~~~~~~~~~~~~~~~~~~~~~~~~~~~~~~~~~~~~~~~~~~~~~~~~~~~~~~~~~~~!~~~~~~~~~~~~~~~~~~~~~~~~~~~~~~~~~~~",
"~~~~~~~~~~~~~~~~~~~~~~~~~~~~~~~~~~~~~~~~~~~~~~~~~~~~~~~~~~~~~~~~~~~~~~~~~~~~~~~~~~~~~~~~~~~~~~~~~~~~~~~~~~~~~~~~~~~~~~~~~~~~~~~~",
"~~~~~~~~~~~~~~~~~~~~~~~~~~~~~~~~~~~~~~~~~~~~~~~~~~~~~~~~~~~~~~~~!~~~~~~~~~~~~~~~~~~~~~~~~~~~~~~~~~~!~~~~~~~~~~~~~~~~~~~~~~~~~~~~",
"~~~~~~~~~~~~~~~~~~~~~~~~~~~~~~~~~~~~~~~~~~~~~~~~~~~~~~~~~~~~~~~~~~~~~~~~~~~~~~~~~~~~~~~~~~~~~~~~~~~~~~~~~~~~~~~~~~~~~~~~~~~~~~~~",
"~~~~~~~~~~~~~~~~~~~~~~~~~~~~~~~~~~~~~~~~~~~~~~~~~~~~~~~~~~~~~~~~~~~~~~~~~~~~~~~~~~~~~~~~~~~~~~~~~~~~~~~~~~~~~~~~~~~~~~~~~~~~~~~~",
"~~~~~~~~~~~~~~~~~~~~~~~~~~~~~~~~~~~~~~~~~~~~~~~~~~~~~~~~~~~~~~~~~~~~~~~~~~~~~~~~~~~~~~~~~~~~~~~~~~~~~~~~~~~~~~~~~~~~~~~~~~~~~~~~",
"~~~~~~~~~~~~~~~~~~~~~~~~~~~~~~~~~~~~~~~~~~~!~~~~~~~~~~~~~~~~~~~~~~~~~~~~~~~~~~~~~~~~~~~~~~~~~~~~~~~~~~~~~~~~~~~~~~~~~~~~~~~~~~~~",
"~~~~~~~~~~~~~~~~~~~~~~~~~~~~~~~~~~~~~~~~~~~~~~~~~~~~~~~~~~~~~~~~~~~~~~~~~~~~~~~~~~~~~~~~~~~~~~~~~~~~~~~~~~~~~~~~~~~~~~~~~~~~~~~~",
"~~~~~~~~~~~~~~~~~~~~~~~~~~~~~~~~~~~~~~~~~~~~~~~~~~~~~~~~~~~~~~~~~~~~~~~~~~~~~~~~~~~~~~~~~~~~~~~~~~~~~~~~~~~~~~~~~~~~~~~~~~~~~~~~",
"~~~~~~~~~~~~~~~~~~~~~~~~~~~~~~~~~~~~~~~~~~~~~~~~~~~~~~~~~~~~~~~~~~~~~~~~~~~~~~~~~~~~~~~~~~~~~~~~~~~~~~~~~~~~~~~~~~~~~~~~~~~~~~~~",
"~~~~~~~~~~~~~~~~~~~~~~~~~~~~~~~~~~~~~~~~~~~~~~~~~~~~~~~~~~~~~~~~~~~~~~~~~~~~~~~~~~~~~~~~~~~~~~~~~~~~~~~~~~~~~~~~~~~~~~~~~~~~~~~~",
"~~~~~~~~~~~~~~~~~~~~~~~~~~~~~~~~~~~~~~~~~~~~~~~~~~~~~~~~~~~~~~~~~~~~~~~~~~~~~~~~~~~~~~~~~~~~~~~~~~~~~~~~~~~~~~~~~~~~~~~~~~~~~~~~",
"~~~~~~~~~~~~~~~~~~~~~~~~~~~~~~~~~~~~~~~~~~~~~~~~~~~~~~~~~~~~~~~~~~~~~~~~~~~~~~~~~~~~~~~~~~~~~~~~~~~~~~~~~~~~~~~~~~~~~~~~~~~~~~~~",
"~~~~~~~~~~~~~~~~~~~~~~~~~~~~~~~~~~~~~~~~~~~~~~~~~~~~~~~~~~~~~~~~~~~~~~~~~~~~~~~~~~~~~~~~~~~~~~~~~~~~~~~~~~~~~~~~~~~~~~~~~~~~~~~~",
"~~~~~~~~~~~~~~~~~~~~~~~~~~~~~~~~~~~~~~~~~~~~~~~~~~~~~~~~~~~~~~~~~~~~~~~~~~~~~~~~~~~~~~~~~~~~~~~~~~~~~~~~~~~~~~~~~~~~~~~~~~~~~~~~",
"~~~~~~~~~~~~~~~~~~~~~~~~~~~~~~~~~~~~~~~~~~~~~~~~~~~~~~~~~~~~~~~~~~~~~~~~~~~~~~~~~~~~~~~~~~~~~~~~~~~~~~~~~~~~~~~~~~~~~~~~~~~~~~~~",
"~~~~~~~~~~~~~~~~~~~~~~~~~~~~~~~~~~~~~~~~~~~~~~~~~~~~~~~~~~~~~~~~~~~~~~~~~~~~~~~~~~~~~~~~~~~~~~~~~~~~~~~~~~~~~~~~~~~~~~~~~~~~~~~~",
"~~~~~~~~~~~~~~~~~~~~~~~~~~~~~~~~~~~~~~~~~~~~~~~~~~~~~~~~~~~~~~~~~~~~~~~~~~~~~~~~~~~~~~~~~~~~~~~~~~~~~~~~~~~~~~~~~~~~~~~~~~~~~~~~",
"~~~~~~~~~~~~~~~~~~~~~~~~~~~~~~~~~~~~~~~~~~~~~~~~~~~~~~~~~~~~~~~~~~~~~~~~~~~~~~~~~~~~~~~~~~~~~~~~~~~~~~~~~~~~~~~~~~~~~~~~~~~~~~~~",
"~~~~~~~~~~~~~~~~~~~~~~~~~~~~~~~~~~~~~~~~~~~~~~~~~~~~~~~~~~~~~~~~~~~~~!~~~~~~~~~~~~~~~~~~~~~~~~~~~~~~~~~~~~~~~~~~~~~~~~~~~~~~~~~~",
"~!~~~~~~~~~~~~~~~~~~~~~~~~~~~~~~~~~~~~~~~~~~~~~~~~~~~~~~~~~~~~~~~~~~~~~~~~~~~~~~~~~~~~~~~~~~~~~~~~~~~~~~~~~~~~~~~~~~~~~~~~~~~~~~",
"~!~~~~~~~~~~~~~~~~~~~~~~~~~~~~~~~~~~~~~~~~~~~~~~~~~~~~~~~~~~~~~~~~~~~~~~~~~~~~~~~~~~~~~~~~~~~~~~~~~~~~~~~~~~~~~~~~~~~~~~~~~~~~~~",
"~~~~~~~~~~~~~~~~~~~~~~~~~~~~~~~~~~~~~~~~~~~~!~~~~~~~~~~~~~~~~~~~~~~~~~~~~~~~~~~~~~~~~~~~~~~~~~~~~~~~~~~~~~~~~~~~~~~~~~~~~~~~~~~~",
"~~~~~~~~~~~~~~~~~~~~~~~~~~~~~~~~~~~~~~~~~~~~~EcjL~~~~~~~~~~~~~~~~~~~~~~~~~~~~~~YmSE~~~~~~~~~~~~~~~~~~~~~~~~~~~~~~~~~~~~~~~~~~~~~",
"~~~~~~~~~~~~~~~~~~~~~~~~~~~~~~~~~~~~~~~~~~~~A<o.$hT~~~~~~~~~~~~~~~~~~~~~~~~~~WMr>>sP~~~~~~~~~~~~~~~~~~~~~~~~~~~~~~~~~~~~~~~~~~~~",
"~~~~~~~~~~~~~~~~~~~~~~~~~~~~~~~~~~~~~~~~~~U9+.....-xE~~~~~~~~~~~~~~~~~~~~~~QFt>>>>:6nY~~~~~~~~~~~~~~~~~~~~~~~~~~~~~~~~~~~~~~~~~~",
"~~~~~~~~~~~~~~~~~~~~~~~~~~~~~~~~~~~~~~~~Rh$..XXXXX.o2D~~~~~~~~~~~~~~~~~~~~Pf5>>>>>>>:7VR~~~~~~~~~~~~~~~~~~~~~~~~~~~~~~~~~~~~~~~~",
"~~~~~~~~~~~~~~~~~~~~~~~~~~~~~~~~~~~~~~Ec&XX..XXXXXXX.@qU~~~~~~~~~~~~~~~~Tn6>>>>>>>>>:>5iFQ~~~~~~~~~~~~~~~~~~~~~~~~~~~~~~~~~~~~~~",
"~~~~~~~~~~~~~~~~~~~~~~~~~~~~~~~~~~~~~J2oXXXXXXXXXXXXX.X$kR~~~~~~~~~~~~QC7:>>>>>>>>>>>>>>>fI~~~~~~~~~~~~~~~~~~~~~~~~~~~~~~~~~~~~~",
"~~~~~~~~~~~~~~~~~~~~~~!~~~~~~~~~!~~Uw@...oXXXoXXXXXXXXXX.,vE~~~~~~~~~~QC7:>>>>>>>>>>>>>>>>7mT~~~~~~~~~~~~~~~~~~~~~~~~~~~~~~~~~~~",
"~~~~~~~~~~~~~~~~~~~~~~~~~~~~~~~~~Rk&.XXXXXXXXXXXXXXXXXXX..O4J~~~~~~~~~~~Yb6>>>>>>>>>>>>>>>>>tVE~~~~~~~~~~~~~~~~~~~~~~~~~~~~~~~~~",
"~~~~~~~~~~~~~~~~~~~~~~~~~~~~!~~Ev,X.XXXXXXXXXXXXXXXXXXXXXXX.#wT~~~~~~~~~~QDi>>>>>>>>>5>>>>>>>>iH!~~!~~~~~~~~~~~~~~~~~~~~~~~~~~~~",
"~~~~~~~~~~~~~~~~~~~~~~~~~~~~~~J4O.XXXXXXXXXXXXXXXXXXXXXXXXXX.X*lE~~~~~~~~~~WVt>>>>>>>>>>>>>>>>>5gY~~~~~~~~~~~~~~~~~~~~~~~~~~~~~~",
"~~~~~~~~~~~~~~~~~~~~~~~~~~~~Ua#X.XXXXXXoXXXXXXXXXXXXXXXXXXXXX..o,A~~~~~~~~~~~Tm7>>>>>>>>>>>>>>>>:emT~~~~~~~~~~~~~~~~~~~~~~~~~~~~",
"~~~~~~~~~~~~~~~~~~~~~~~~~~El&XXXXXXXXXXXXXXXX.o+..XXXXXXXXXXXXXX.@9J~~~~~~~~~~~If5>>>>>>>>>>>>>>::>tCW~~~~~~~~~~~~~~~~~~~~~~~~~~",
"~~~~~~~~~~~~~~~~~~~~~~~~~A,XXXXXXXXXXXXXXXX.o,cJw@.XXXXXXXXXXXoX...$hU~~~~~~~~~~QFu>>>>>>>>5>>>>>>>>>iH~~~!!~~~~~~~~~~~~~~~~~~~~",
"~~~~~~~~~~~~~~~~~~~~~~~J8+..XXXXXXXXXXXXX..$kR~~~J3oXXXXXXXXXXXXXX...=xE~~~~~~~~~~WNr>>>>>>>>>>>>>>>>>6gY~~~~~~~~~~~~~~~~~~~~~~~",
"~~~~~~~~~~~~~~~~~~~~~Ta#..XXXXXXXXXXXXXX.@qU~~~~~~Qc-XXXXXXXXXXXXXoX..o2D~~~~~~~~~~~Tn7>>>>>>>>>>>>>>>>:rMW~~~~~~~~~~~~~~~~~~~~~",
"~~~~~~~~~~~~~~~~~~~~P-XXXXXXXXXXXXXXXX.o3D!~~~~~~~~~Th$....XXXXXXXXXXXXX@qU~~~~~~~~~~~Ps5>>>>>>>6>>>>>>>:>uY~~~~~~~~~~~~~~~~~~~~",
"~~~~~~~~~~~~~~~~~~~~nXXXXXXXXXXXXXXX.X&xQ~~~~~~~~~~~~~L9+..XXXXXXXXXXXXXX.$jR~~~~~~~~~~EFy>>>>>>>>>>>>>>>>>C~~~~~~~~~~~~~~~~~~~~",
"~~~~~~~~~~~~~~~~~~~~aXXXXXXXXXXXXXX.$jR~~~~~~~~~~~~~~~~~S<o.XXXXXXXXXXXXX.XX-cQ~~Q~~~~~~~RMr:>>>>>>>>6>>>>>V~~~~~~~~~~~~~~~~~~~~",
"~~~~~~~~~~~~~~~~~~~~hXXXXXoXXXXXX.+0L~~~~~~~~~~~~~~~~~~~~Ez=.XXXXXXXXXXXXXX..O3D~~~~~~~~~~~Un6>>>>>>>>>>>>>Z~~~~~~~~~~~~~~~~~~~~",
"~~~~~~~~~~~~~~~~~~~~hXXXXXXXXXXoo1A~~~~~~~~~~~TYE~~~~~~~~~~Ua#..XXXXXXXXXXXX...#wU~~~~~~~~~~~Ps>>>>>>>>>>>>N~~~~~~~!~~~~~~~~~~~~",
"~~~~~~~~~~~~~~~~~~~~hXXXXXXXXXX&zE~~~~~~~~~~WVredI~~~~~~~~~~~J8+XXXXXXXXXXXXXXX..*lR~~~~~~~~~~EFt>>>>>>>>>>N~~~~~~~~~~~~~~~~~~~~",
"~~~~~~~~~~~~~~~~~~~~hXXXXXXXX.&U~~~~~~~~~~!Hi>>>>7mR~~~~~~~~~~QA,o..XXXXXXXXXXXX..X,BQ~~~~~~~~~~Pe>>>>>>>>>N~~~~~~~~~~~~~~~~~~~~",
"~~~~~~~~~~~~~~~~~~~~hXXXXXXXX.8~~~~~~~~~~Ib5>>>>>>>tCE~~~~~~~~~~Wl*.XXXXXXXXXXXXXX..O4J~~~~~~~~~~f:>>>>>>>>N~~~~~~~~~~~~~~~~~~~~",
"~~~~~~~~~~~~~~~~~~~~hXXXXXXXX.8~~~~~~~~TMe::>5>>>>>>>sPQ~~~~~~~~~~L*XXXXXXXXXXoXXXXXXX#pT~~~~~~~~g:>>>>>>>:N~~~~~~~~~~~~~~~~~~~~",
"~~~~~~~~~~~~~~~~~~~~h.XXXXXXX.8!~~~~~EBt>>>>>>>>>>>>>>6bY~~~~~~~~~~4XXXXXXXXXXXXXXXXXXXX*l!~~~~~~f:>>>>>>>:V~~~~~~~~~~~~~~~~~~~~",
"~~~~~~~~~~~~~~~~~~~~hXXXXXXXX.4~~~~~~N5>>>>>>>>>>>>>>>>>7MW~~~~~~~~4.XXXXXXXXXXXXXXXXXXX.Xl~~~~~~f:>>>>>>>:V~~~~~~~~~~~~~~~~~~~~",
"~~~~~~~~~~~~~~~~~~~~hXXXXXXXX.8~~~~~~s:>>>>>>>>>>>>>>>>>5>tZQ~~~~~~4.XXXXXXXXXXXXXXXXXXXXX7~~~~~!f:>>>>>>>>V~~~~~~~~~~~~~~~~~~~~",
"~~~~~~~~~~~~~~~~~~~~lXXXXXXXXX4~~~~~~s:>>>>>>>>>>5>>>5>>>>>>Z~~~~~~4XXXXXXXXXXXXXXXXXXXXX.4~~~~!!s>>>>>>>>:V~~~~~~~~~~~~~~~~~~~~",
"~~~~~~~~~~~~~~~~~~~~j.XXXXXXXX4!~~~~!d:>>>>>>>>>>>>>>>>>>>>:b~~~~~~4XXXXXXXXXXXoXXXXXXXXX.4~~~~~!f:>>>>>>>>V~~~~~~~~~~~~~~~~~~~~",
"~~~~~~~~~~~~!~~~~~~~hXXXXXXXX.4~~~~~~d:>>>>>>>>5>>>>>>>>>>>>b~~~~~Q4XXXXXXXXXXXXXXXXXXXXX.4~~~~~!f>>>>>>>>>V~~~~~~~~~~~~~~~~~~~~",
"~~~~~~~~~~~~~~~~~~~~h.XXXXXXX.4~~~~~!d:>>>>5>>>>>>>>>>>>>>>>b~~~~~~4XXXXXXXXXXXXXXXXXXXXX.8~~~~!~s>>>>>>>>>V~~~~~~~~~~~!~~~~~~~~",
"~~~~~~~~~~~~~~~~~~~~hXXXXXXX..3~~~~~!f:>>>>>>>>>>6>>>>>>>>>:b~~~~~~4.XXXXXXXXXXXXXXXXXXXXX8~~~~~~s:>>>>>>>:V~~~~~~~~~~~~~~~~~~~~",
"~~~~~~~~~~~~~~~~~~~~hXXXXXXXX.8~~~~~!g:>>>5>>>>>>>>>>>>>>>>:b~~~~~~3.XXXXXXXXXXXXXXXXXXXXX8~~~~~~s:>>>>>>>>V~~~~~~~~~~~~~~~~~~~~",
"~~~~~~~~~~~~~~~~~~~~hXXXXXXXX.4~~~~~!f:>>5>>>>>>>>>>>>>>>>>:b~~~~~~3.XXXXXXXXXXXXXoXXXXX..4~~~~~Qd>>>>>>>>:V~~~~~~~~~~~~~~~~~~~~",
"~~~~~~~~~~~~~~~~~~!~hXXXXXXXX.4~~~!!!f:>>>>5>>>>>>>>>>>>5>>:b~~~~~~ko.XXXXXXXXXXXXXXXXXXX.4~~~~~~s:>>>>>>>:V~~~~~~~~~~~~~~~~~~~~",
"~~~~~~~~~~~~~~~~~~~~hXXXXXXXX.8~~~~~~f:>>>>>>>>>>>>>>>>>>>>:b~~~~~~Ek$..XXXXoXXXXXXXXXXXX.3~~~~~!f>>>>>>>>:V~~~~~~~~~~~~~~~~~~~~",
"~~~~~~~~~~~~~~~~~~~~h.XXXXXXX.8~~~~~~V>>>>>>>>>>>>>6>>>>>>>:b~~~~~~~~Uw$.XXXXXXXXXXXXXX..Xj~~~~~!f:>>>>>>>:V~~~~~~~~~~~~~~~~~~~~",
"~~~~~~~~~~~~~~~~~~~~hXXXXXXXX.8~~~~~~!Vr::>>>>>>>>>>>>>>>>>:b~~~~~~~~~~J3+..XXXXXXXXXX..*lE~~~~~!f:>5>>>>>>C~~~~~~~~~~~~~~~~~~~~",
"~~~~~~~~~~~~~~~~~~~~jXXXXXXXX.9~~~~~~~~Yne>>>>>>>>>>5>>>>>>>tT~!~~~~~~~~Ev,XXXXXXXXX..$wT~~~~~~~~f>>>>>>>>>C~~~~~~~~~~~~~~~~~~~~",
"~~~~~~~~~~~~~~~~~~~~lXXXXXXXXX8~~~~~~~~~~Pf>>>>>>>>>>>>>>>>>>tZ!~~~~~~~!~~El$XXX.o..O4J~~~~~~~~~!f>>>>>>>>>V~~~~~~~~~~~~~~~~~~~~",
"~~~~~~~~~~~~~~~~~~~~jXXXXXXXXX*U~~~~~~~~~~!Zy>>>>>>>>>>>>>5>>>>fP~~~~~~~~~~~U0@....,BQ~~~~~~~~~~Yr>>>>>>>>>V~~~~~~~~~~~~~~~~~~~~",
"~~~~~~~~~~~~~~~~~~~~h.XXXXXXXXX=VQ~~~~~~~~~~WNr>>>>>>>>>>5>>>>>>7nU~~~~~~~~~~~D1+$jR~~~~~~~~~~WFt>>>>>>5>>>N~~~~~~~~~~~~~~~~~~~~",
"~~~~~~~~~~~~~~~~~~~~hXXXXXXXXX..o3D~~~~~~~~~~~Ybe>>>>>>>>>>>>>>>>>rNE~~~~~~~~~~EJU~~~~~~~~~~~Pf5>>>>>>>>>>>V~~~~~~~~~~~~~~~~~~~~",
"~~~~~~~~~~~~~~~~~~~~h.XXXXXXXXXXX.@wU~~~~~~~~~~~Hs>>>>>>>>>>>>>>>>:>yFE~~~~~~~~~~~~~~~~~!~~Un7:>>>>>>>>>>>>N~~~~~~~~~~~~~~~~~~~~",
"~~~~~~~~~~~~~~~~~~~~a.XXXXXXoXXXX..X$kR~~!~~~~~~~QZt>>>>>>>>>>>>>>>::5dI~~~~~~~~~~~~~~~~~WV7>>>>>>>>>>>>>>>N~~~~~~~~~~~~~~~~~~~~",
"~~~~~~~~~~~~~~~~~~~~jXXXXXXXXXXXXXX...;v!~~~~~~~~~~RNe>>>>5>>>>>>>>>>>>7nT~~~~~~~~~~~~~QFy5>>>>>>>>>>>>>>>:V~~~~~~~~~~~~~~~~~~~~",
"~~~~~~~~~~~~~~~~~~~~L&XXXXXXXXXXXXXXX..o4H~~~~~~~~~~~Yg6>>>>>>>>>>>>>>>:>rVE~!~~~~~~~~Pf5>>>>>>>>>>>>>>>:>yY~~~~~~~~~~~~~~~~~~~~",
"~~~~~~~~~~~~~~~~~~~~~Uw$...XXXXXXXXXXXXXX#wU~~~~~~~~~~~Ki>>>>>>>>>>5>>>>>>>iHQ~~~~~~Tne:>>>5>>>5>>>>>>>:7mT~~~~~~~~~~~~~~~~~~~~~",
"~~~~~~~~~~~~~~~~~~~~~~~J3+..XXXXXXXXXXXXXXX&lE~~~~~~~~~~ECt:>>>>>>>>>>>>>>>>5bY~~~WVt>>>>>>>>>>>>>>>>>5gY~~~~~~~~~~~~~~~~~~~~~~~",
"~~~~~~~~~~~~~~~~~~~~~~~~~v,Xo...XXXXXXXXXX..X,AE~~~~~~~~~~TMe>>>>>>>>>>>>>>>>>emIDi>>>>>>>>>>>>>>>>:>iD~~~~~~~~~~~~~~~~~~~~~~~~~",
"~~~~~~~~~~~~~~~~~~~~~~~~~~Rl$X..XXXXXXXXXXXXX.+8J~~~~~~~~~~~If5:>>>>5>>>>>5>>>>>65>>>>>>>>>>>>>>>>:tCW~~~~~~~~~~~~~~~~~~~~~~~~~~",
"~~~~~~~~~~~~~~~~~~~~~~~~~~~~Uw+.XXXXXXXXXXXXXXX.$aU~~~~~~~~~~~Di>>>>>>>>>>>>>>>>>>>>>>>>>5>>>>>:>enT~~~~~~~~~~~~~~~~~~~~~~~~~~~~",
"~~~~~~~~~~~~~~~~~~~~~~~~~~~~~~J3+..XXXXXXXXXXXXX.X=zE~~~~~~~~~~RVr>>>>>>>>>>>>>>>>>>>>>>>>>>>>:6fI~~~~~~~~~~~~~~~~~~~~~~~~~~~~~~",
"~~~~~~~~~~~~~~~~~~~~~~~~~~~~~~~Ec-..XXXXXXXXXXXXX..X<S~~~~~~~~~~~Tn7>>>>>>5>>>>>>>>>>>>>>>5>>>uF!~~~~~~~~~~~~~~~~~~~~~~~~~~~~~~~",
"~~~~~~~~~~~~~~~~~~~~~~~~~~~~~~~~~Rj$X.XXXXXXXXXXXXX..@9L~~~!~~~~~~~Is5>>>>>>>>>>>>>>>>>>>>:57VE~~~~~~~~~~~~~~~~~~~~~~~~~~~~~~~~~",
"~~~~~~~~~~~~~~~~~~~~~~~~~~~~~~~~~~~U0+..XXXXXXXXXXXXXX.$bW~~~~~~~~~~QFu>>>>>>>>>>>>>>>>>>:6nY~~~~~~~~~~~~~~~~~~~~~~~~~~~~~~~~~~~",
"~~~~~~~~~~~~~~~~~~~~~~~~~~~~~~~~~~~~~D1oXXXXXXXXXXXXX..$kW~~~~~~~~~~~~RNr:>>>>>>>>>5>>>:>fP~~~~~~~~~~~~~~~~~~~~~~~~~~~~~~~~~~~~~",
"~~~~~~~~~~~~~~~~~~~~~~~~~~~~~~~~~~~~~~Ex=..XXXXXXXXX.+qI~~~~~~~~~~~~~~~~Yb6>>>>>>>>>>>>yFQ~~~~~~~~~~~~~~~~~~~~~~~~~~~~~~~~~~~~~~",
"~~~~~~~~~~~~~~~~~~~~E~~~~~~~~~~~~~~~~~~~Th#.XXXXXXXo2D~~~~~~~~~~~~~~~~~~~~Pi>>>>>>>>:rMT~~~~~~~~~~~~~~~~~~~~~~~~~~~~~~~~~~~~~~~~",
"~~~~~~~~~~~~~~~~~~~~~~~~~~~~~~~~~~~~~~~~~~L8+..XXX=c!~~!~~~~~~~~~~~~~~~~~~~ECt>>>>>6bY~~~~~~~~~~~~~~~~~~~~~~~~~~~~~~~~~~~~~~~~~~",
"~~~~~~~~~~~~~~~~~~~~~~~~~~~~~~~~~~~~~~~~~~~QA,X.$hT~~!~~~~~~~~~~~~~~~~~~~~~~~Rme>5iH!~~~~~~~~~~~~~~~~~~~~~~~~~~~~~~~~~~~~~~~~~~~",
"~~~~~~~~~~~~~~~~~~~~~~~~~~~~~~~~~~~~~~~~~~~~~EzwP~~!~~~~~~~~~~~~~~~~~~~~~~~~~~~UMZW~~~~~~~~~~~~~~~~~~~~~~~~~~~~~~~~~~~~~~~~~~~~~",
"~~~~~~~~~~~~~~~~~~~~~~~~~~~~~~~~~~~~~~~~~~~~~~~~~~~~~~~~~~~~~~~~~~~~~~~~~~~~~~~~~~~~~~~~~~~~~~~~~~~~~~~~~~~~~~~~~~~~~~~~~~~~~~~~",
"~~~~~~~~~~~~~~~~~~~~~~~~~~~~~~~~~~~~~~~~~~~~~~~~~~~~~~~~~!~~~~~~~~~~~~~~~~~~~~~~~~~~~~~~~~~~~~~~~~~~~~~~~~~~~~~~~~~~~~~~~~~~~~~~",
"~~~~~~~~~~~~~~~~~~~~~~~~~~~~~~~~~!~~~~~~~~~~~~~~~~~~~~~~~~~~~~~~~~~~~~~~~~~~~~~~~~~~~~~~~~~~~~~~~~~~~~~~~~~~~~~~~~~~~~~~~~~~~~~~",
"~~~~~~~~~~~~~~~~~~~~~~~~~~~~~~~~~~~~~~~~~~~~~~~~~~~~~~~~~~~~~~~~~~~~~~~~~~~~~~~~~~~~~~~~~~~~~~~~~~~~~~~~~~~~~~~~~~~~~~~~~~~~~~~~",
"~~~~~~~~~~~~~~~~~~~~~~~~~~~~~~~~~~~~~~~~~~~~~~~~~~~~~~~~~~~~~~~~~~~~~~~~~~~~~~~~~~~~~~~~~~~~~~~~~~~~~~~~!!~~~~~~~~~~~~~~~~~~~~~~",
"~~~~~~~~~~~~~~~~~~~~~~~~~~~~~~~~~~~~~~~~~~~~~~~~~~~~~~~~~~~~~~~~~~~~~~~~~~~~~~~~~~~~~~~~~~~~~~~~~~~~~~~~~~~~~~~~~~~~~~~~~~~~~~~~",
"~~~~~~~~~~~~~~~~~~~~~~~~~~~~~~~~~~~~~~~~~~~~~~~~~~~~~~~~~~~~~~~~~~~~~~~~~~~~~~~~~~~~~~~~~~~~~~~~~~~~~~~~~~~~~~~~~~~~~~~~~~~~~~~~",
"~~~~~~~~~~~~~~~~~~~~~~~~~~~~~~~~~~~~~~~~~~~~~~~~~~~~~~~~~~~~~~~~~~~~~~~~~~~~~~~~~~~~~~~~~~~~~~~~~~~~~~~~~~~~~~~~~~~~~~~~~~~~~~~~",
"~~~~~~~~~~~~~~~~~~~~~~~~~~~~~~~~~~~~~~~~~~~~~~~~~~~~~~~~~~~~~~~~~~~~~~~~~~~~~~~~~~~~~~~~~~~~~~~~~~~~~~~~~~~~~~~~~~~~~~~~~~~~~~~~",
"~~~~~~~~~~~~~~~~~~~~~~~~~~~~~~~~~~~~~~~~~~~~~~~~~~~~~~~~~~~~~~~~~~~~~~~~~~~~~~~~~~~~~~~~~~~~~~~~~~~~~~~~~~~~~~~~~~~~~~~~~~~~~~~~",
"~~~~~~~~~~~~~~~~~~~~~~~~~~~~~~~~~~~~~~~~~~~~~~~~~~~~~~~~~~~~~~~~~~~~~~~~~~~~~~~~~~~~~~~~~~~~~~~~~~~~~~~~~~~~~~~~~~~~~~~~~~~~~~~~",
"~~~~~~~~~~~~~~~~~~~~~~~~~~~~~~~~~~~~~~~~~~~~~~~~~~~~~~~~~~~~~~~~~~~~~~~~~~~~~~~~~~!~~~~~~!~~~~~~~~~~~~~~~~~~~~~~~~~~~~~~~~~~~~~~",
"~~~~~~~~~~~~~~~~~~~~~~~~~~~~~~~~~~~~~~~~~~~~~~~~~~~!~~~~~~~~~~~~~~~~~~~~~~~~~~~~~~~~~~~~~~~~~~~~~~~~~~~~~~~~~~~~~~~~~~~~~~~~~~~~",
"~~~~~~~~~~~~~~~~~~~~~~~~~~~~~~~~~~~~~~~~~~~~~~~~~~~~~~~~~~~~~~~~~~~~~~~~~~~~~~~~~~~~~~~~~~~~~~~~~~~~~~~~~~~~~~~~~~~~~~~~~~~~~~~~",
"~~~~~~~~~~~~~~~~~~~~~~~~~~~~~~~~~~~~~~~~~~~~~~~~~~~~~~~~~~~~~~~~~~~~~~~~~~~~~~~~~~~~~~~~~~~~~~~~~~~~~~~~~~~~~~~~~~~~~~~~~~~~~~~~",
"~~~~~~~~~~~~~~~~~~~~~~~~~~~~~~~~~~~~~~~~~~~~~!~~~~~~~~~~~~~~~~~~~~~~~~~~~~~~~~~~~~~~~~~~~~~~~~~~~~~~~~~~~~~~~~~~~~~~~~~~~~~~~~~~",
"~~~~~~~~~~~~~~~~~~~~~~~~~~~~~~~~~~~~~~~~~~~~~~~~~~~~~~~~~~~~~~~~~~~~~~~~~~~~~~~~~~~~~~~~~~~~~~~~~~~~~~~~~~~~~~~~~~~~~~~~~~~~~~~~",
"~~~~~~~~~~~~~~~~~~~~~~~~~~~~~~~~~~~~~~~~~~~~~~~~~~~~~~~~~~~~~~~~~~~~~~~~~~~~~~~~~~~~~~~~~~~~~~~~~~~~~~~~~~~~~~~~~~~~~~~~~~~~~~~~",
"~~~~~~~~~~~~~~~~~~~~~~~~~~~~~~~~~~~~~~~~~~~~~~~~~~~~~~~~~~~~~~~~~~~~~~~~~~~~~~~~~~~~~~~~~~~~~~~~~~~~~~~~~~~~~~~~~~~~~~~~~~~~~~~~",
"~~~~~~~~~~~~~~~~~~~~~~~~~~~~~~~~~~~~~~~~~~~~~~~~~~~~~~~~~~~~~~~~~~~~~~~~~~~~~~~~~~~~~~~~~~~~~~~~~~~~~~~~~~~~~~~~~~~~~~~~~~~~~~~~",
"~~~~~~~~~~!~~~~~~~~~~~~~~~~~~~~~~~~~~~~~~~~~~~~~~~~~~~~~~~~~~~~~~~~~~~~~~~~~~~~~~~~~~~~~~~~~~~~~~~~~~~~~~~~~~~~~~~~~~~~~~~~~~~~~",
"~~~~~~~~~~~~~~~~~~~~~~~~~~~~~~~~~~~~~~~~~~~~~~~~~~~~~~~~~~~~~~~~~~~~~~~~~~~~~~~~~~~~~~!~~~~~~~~~~~~~~~~~~~~~~~~~~~~~~~~~~~~~~~~~",
"~~~~~~~~~~~~~~~~~~~~~~~~~~~~~~~~~~~~~~~~~~~~~~~~~~~~~~~~~~~~~~~~~~~~~~~~~~~~~~~~~~~~~~~~~~~~~~~~~~~~~~~~~~~~~~~~~~~~~~~~~~~~~~~~",
"~~~~~~~~~~~~~~~~~~~~~~~~~~~~~~~~~~~~~~~~~~~~~~~~~~~~~~~~~~~~~~~~~~~~~~~~~~~~~~~~~~~~~~~~~~~~~~~~~~~~~~~~~~~~~~~~~~~~~~~~~~~~~~~~",
"~~~~~~~~~~~~~~~~~~~~~~~~~~~~~~~~~~~~~~~~~~~~~~~~~~~~~~~~~~~~~~~~~~~~~~~~~~~~~~~~~~~~~~~~~~~~~~~~~~~~~~~~~~~~~~~~~~~~~~~~~~~~~~~~",
" ~~~~~~~~~~~~~~~~~~~~~~~~~~~~~~~~~~~~~~~~~~~~~~~~~~~~~~~~~~~~~~~~~~~~~~~~~~~~~~~~~~~~~~~~~~~~~~~~~~~~~~~~~~~~~~~~~~~~~~~~~~~~~~ ",
" ~~~~~~~~~~~~~~~~~~~~~~~~~~~~~~~~~~~~~~~~~~~~~~~~~~~~~~~~~~~~~~~~~~~~~~~~!~~~~~~~~~~~~~~~~~~~~~~~~~~~~~~~~~~~~~~~~~~~~~~~~~~~~~ ",
"  ~~~~~~~~~~~!!~~~~~~~~~~~~~~~~~!~~~~~~~~~~~~~~~!~~~~~~~~~~~~~~~~~~~~~~~~~~~~~~~~~~~~~~~~~~~~~~~~~~~~~~~~~~~~~~~~~~~~~~~~~~~~~  ",
"  ~~~~~~~~~~~~~~~~~~~~~~~~~~~~~~~~~~~~~~~~~~~~~~~~~~~~~~~~!~~~~~~~~~~~~~~~~~~~~~~~~~~~~~~~~~~~~~~~~~~~~~~~~~~~~~~~~~~~~~~~~~~~  ",
"   ~~~~~~~~~~~~~~~~~~~~~~~~~~~~~~~~~~~~~~~~~~~~~~~~~~~~~~~~~~~~~~~~~~~~~~~~~~~~~~~~~~~~~~~~~~~~~~~~~~~~~~~~~~~~~~~~~~~~~~~~~~   ",
"    ~~~~~~~~~~~~~~~~~~~~~~~~~~~~~~~~~~~~~~~~~~~~~~~~~~~~~~~~~~~~~~~~~~~~~~~~~~~~~~~~~~~~~~~~~~~~~~~~~~~~~~~~~~~~~~~~~~~~~~~~    ",
"      ~~~~~~~~~~~~~~~~~~~~~~~~~~~~~~~~~~~~~~~~~~~~~~~~~~~~~~~~~~~~~~~~~~~~~~~~~~~~~~~~~~~~~~~~~~~~~~~~~~~~~~~~~~~~~~~~~~~~      ",
"        ~~~~~~~~~~~~~~~~~~~~~~~~~~~~~~~~~~~~~~~~~~~~~~~~~~~~~~~~~~~~~~~~~~~~~~~~~~~~~~~~~~~~~~~~~~~~~~~~~~~~~~~~~~~~~~~~        "
};
